<?xml version="1.0" standalone="no"?><!DOCTYPE svg PUBLIC "-//W3C//DTD SVG 1.1//EN" "http://www.w3.org/Graphics/SVG/1.1/DTD/svg11.dtd"><svg t="1699182401475" class="icon" viewBox="0 0 2346 1024" version="1.1" xmlns="http://www.w3.org/2000/svg" p-id="5264" xmlns:xlink="http://www.w3.org/1999/xlink" width="458.203125" height="200"><path d="M2005.333333 21.333333c83.2 0 149.333333 66.133333 149.333334 149.333334v21.333333h21.333333c83.2 0 149.333333 66.133333 149.333333 149.333333v341.333334c0 83.2-66.133333 149.333333-149.333333 149.333333h-21.333333v21.333333c0 83.2-66.133333 149.333333-149.333334 149.333334H341.333333c-83.2 0-149.333333-66.133333-149.333333-149.333334v-21.333333H170.666667c-83.2 0-149.333333-66.133333-149.333334-149.333333V341.333333c0-83.2 66.133333-149.333333 149.333334-149.333333h21.333333V170.666667c0-83.2 66.133333-149.333333 149.333333-149.333334h1664m0-21.333333H341.333333c-93.866667 0-170.666667 76.8-170.666666 170.666667-93.866667 0-170.666667 76.8-170.666667 170.666666v341.333334c0 93.866667 76.8 170.666667 170.666667 170.666666 0 93.866667 76.8 170.666667 170.666666 170.666667h1664c93.866667 0 170.666667-76.8 170.666667-170.666667 93.866667 0 170.666667-76.8 170.666667-170.666666V341.333333c0-93.866667-76.8-170.666667-170.666667-170.666666 0-93.866667-76.8-170.666667-170.666667-170.666667z" fill="#D8D8D8" p-id="5265"></path><path d="M1960.533333 106.666667c66.133333 0 121.6 53.333333 121.6 121.6v21.333333h21.333334c74.666667 0 136.533333 61.866667 136.533333 136.533333v251.733334c0 74.666667-61.866667 136.533333-136.533333 136.533333h-21.333334v21.333333c0 66.133333-53.333333 121.6-121.6 121.6H386.133333c-66.133333 0-121.6-53.333333-121.6-121.6v-21.333333h-21.333333c-74.666667 0-136.533333-61.866667-136.533333-136.533333V386.133333c0-74.666667 61.866667-136.533333 136.533333-136.533333h21.333333v-21.333333C264.533333 160 320 106.666667 386.133333 106.666667h1574.4m0-21.333334H386.133333c-78.933333 0-142.933333 64-142.933333 142.933334C155.733333 228.266667 85.333333 298.666667 85.333333 386.133333v251.733334c0 87.466667 70.4 157.866667 157.866667 157.866666 0 78.933333 64 142.933333 142.933333 142.933334h1574.4c78.933333 0 142.933333-64 142.933334-142.933334 87.466667 0 157.866667-70.4 157.866666-157.866666V386.133333c0-87.466667-70.4-157.866667-157.866666-157.866666 0-78.933333-64-142.933333-142.933334-142.933334z" fill="#D8D8D8" p-id="5266"></path></svg>