<?xml version="1.0" standalone="no"?><!DOCTYPE svg PUBLIC "-//W3C//DTD SVG 1.1//EN" "http://www.w3.org/Graphics/SVG/1.1/DTD/svg11.dtd"><svg t="1699186559162" class="icon" viewBox="0 0 1024 1024" version="1.1" xmlns="http://www.w3.org/2000/svg" p-id="1404" xmlns:xlink="http://www.w3.org/1999/xlink" width="200" height="200"><path d="M640 533.333333a170.666667 170.666667 0 1 0 0-341.333333 170.666667 170.666667 0 0 0 0 341.333333z m-106.666667 42.666667h256a170.666667 170.666667 0 0 1 170.666667 170.666667v106.666666a64 64 0 0 1-64 64H426.666667a64 64 0 0 1-64-64v-106.666666a170.666667 170.666667 0 0 1 170.666666-170.666667z" fill="#1AB370" opacity=".2" p-id="1405"></path><path d="M746.666667 576a170.666667 170.666667 0 0 1 170.666666 170.666667v106.666666a64 64 0 0 1-64 64H170.666667a64 64 0 0 1-64-64v-106.666666a170.666667 170.666667 0 0 1 170.666666-170.666667h469.333334z m0 64H277.333333a106.666667 106.666667 0 0 0-106.56 102.037333L170.666667 746.666667v106.666666h682.666666v-106.666666a106.666667 106.666667 0 0 0-106.666666-106.666667zM512 64c129.6 0 234.666667 105.066667 234.666667 234.666667 0 127.552-101.76 231.317333-228.522667 234.581333L512 533.333333c-129.6 0-234.666667-105.066667-234.666667-234.666666 0-127.552 101.76-231.317333 228.522667-234.581334L512 64z m0 64a170.666667 170.666667 0 1 0 0 341.333333 170.666667 170.666667 0 0 0 0-341.333333z" fill="#1AB370" p-id="1406"></path></svg>