<?xml version="1.0" standalone="no"?><!DOCTYPE svg PUBLIC "-//W3C//DTD SVG 1.1//EN" "http://www.w3.org/Graphics/SVG/1.1/DTD/svg11.dtd"><svg t="1700379022836" class="icon" viewBox="0 0 1024 1024" version="1.1" xmlns="http://www.w3.org/2000/svg" p-id="2762" xmlns:xlink="http://www.w3.org/1999/xlink" width="200" height="200"><path d="M0 0h1024v1024H0V0z" fill="#202425" opacity=".01" p-id="2763"></path><path d="M170.666667 68.266667a136.533333 136.533333 0 0 0-136.533334 136.533333v273.066667c0 50.517333 27.4432 94.651733 68.266667 118.272V273.066667a68.266667 68.266667 0 0 1 68.266667-68.266667h682.666666a68.266667 68.266667 0 0 1 68.266667 68.266667v323.072A136.465067 136.465067 0 0 0 989.866667 477.866667V273.066667a136.533333 136.533333 0 0 0-136.533334-136.533334h-303.172266A61.7472 61.7472 0 0 1 494.933333 102.4c-10.4448-20.923733-31.8464-34.133333-55.227733-34.133333H170.666667z" fill="#FFAA44" p-id="2764"></path><path d="M34.133333 341.333333a68.266667 68.266667 0 0 1 68.266667-68.266666h819.2a68.266667 68.266667 0 0 1 68.266667 68.266666v477.866667a136.533333 136.533333 0 0 1-136.533334 136.533333H170.666667a136.533333 136.533333 0 0 1-136.533334-136.533333V341.333333z" fill="#FF7744" p-id="2765"></path><path d="M496.605867 407.7568a17.066667 17.066667 0 0 1 30.788266 0L576.853333 511.317333a17.066667 17.066667 0 0 0 13.175467 9.557334l113.800533 15.018666a17.066667 17.066667 0 0 1 9.5232 29.2864l-83.2512 79.018667a17.066667 17.066667 0 0 0-5.051733 15.496533l20.923733 112.8448a17.066667 17.066667 0 0 1-24.917333 18.090667l-100.864-54.715733a17.066667 17.066667 0 0 0-16.315733 0l-100.864 54.715733a17.066667 17.066667 0 0 1-24.917334-18.090667l20.8896-112.8448a17.066667 17.066667 0 0 0-5.0176-15.496533l-83.217066-79.018667a17.066667 17.066667 0 0 1 9.489066-29.2864l113.800534-15.018666a17.066667 17.066667 0 0 0 13.175466-9.557334l49.425067-103.560533z" fill="#FFFFFF" p-id="2766"></path></svg>