<?xml version="1.0" standalone="no"?><!DOCTYPE svg PUBLIC "-//W3C//DTD SVG 1.1//EN" "http://www.w3.org/Graphics/SVG/1.1/DTD/svg11.dtd"><svg t="1700922207407" class="icon" viewBox="0 0 1024 1024" version="1.1" xmlns="http://www.w3.org/2000/svg" p-id="3168" xmlns:xlink="http://www.w3.org/1999/xlink" width="200" height="200"><path d="M612.368254 650.15873a8.126984 8.126984 0 0 0-2.275556-7.151746L386.113016 419.189841a8.126984 8.126984 0 0 0-13.165714 2.438096l-180.175239 404.15492a8.126984 8.126984 0 0 0 1.706667 9.020953 8.126984 8.126984 0 0 0 5.688889 2.438095 8.126984 8.126984 0 0 0 3.332064-0.731429l404.15492-180.175238a8.126984 8.126984 0 0 0 4.713651-6.176508z" fill="#40466B" p-id="3169"></path><path d="M348.07873 517.36381l100.286984-12.921905 52.500318 52.500317-180.825397 23.324445 28.038095-62.902857z" fill="#88CDCE" p-id="3170"></path><path d="M312.23873 597.658413l203.174603-26.250159 55.832381 55.832381-288.833016 37.384127 29.826032-66.966349zM383.024762 439.019683l50.874921 50.87492-78.100318 10.07746 27.225397-60.95238zM241.046349 757.51619l140.353016-18.123174-165.140317 73.630476 24.787301-55.507302z" fill="#F16C89" p-id="3171"></path><path d="M432.599365 716.55619h-0.893968l-182.938413 23.568254 25.925079-58.107936 311.100953-40.634921 4.469841 4.469842z" fill="#88CDCE" p-id="3172"></path><path d="M756.866032 636.993016a8.126984 8.126984 0 0 0-3.250794-10.971429c-47.624127-26.006349-106.707302 1.950476-109.226667 3.169524a8.126984 8.126984 0 0 0 3.575873 15.44127 8.126984 8.126984 0 0 0 3.494604-0.812698c0.568889 0 54.125714-25.51873 94.354285-3.575873a8.126984 8.126984 0 0 0 11.052699-3.250794zM408.299683 405.292698a8.126984 8.126984 0 0 0 3.250793 0.650159 8.126984 8.126984 0 0 0 7.476826-4.87619c0.812698-1.950476 20.23619-47.705397-1.056508-83.139048a8.126984 8.126984 0 0 0-13.978413 8.126984c16.985397 28.281905 0 68.022857 0 68.429207a8.126984 8.126984 0 0 0 4.307302 10.808888zM594.651429 505.660952a8.126984 8.126984 0 0 0 1.625396 11.377778 8.126984 8.126984 0 0 0 4.876191 1.625397 8.126984 8.126984 0 0 0 6.501587-3.250794c0-0.487619 35.59619-46.892698 81.269841-46.892698h1.137778a8.126984 8.126984 0 1 0 0-16.253968c-54.206984-1.056508-93.785397 51.606349-95.410793 53.394285zM507.04254 427.723175a8.126984 8.126984 0 0 0 6.501587 3.332063 8.126984 8.126984 0 0 0 4.87619-1.625397c2.194286-1.706667 54.369524-41.12254 53.394286-95.329524a8.126984 8.126984 0 0 0-8.126984-8.126984 8.126984 8.126984 0 0 0-8.126984 8.126984c0.812698 45.83619-46.405079 81.269841-46.892698 82.00127a8.126984 8.126984 0 0 0-1.625397 11.621588zM461.775238 433.737143a9.102222 9.102222 0 0 0 3.494603 0.812698 8.126984 8.126984 0 0 0 7.314286-4.632381c1.787937-3.657143 42.991746-90.778413 4.87619-160.507936a8.126984 8.126984 0 1 0-14.222222 8.126984c33.970794 62.333968-4.87619 144.822857-5.282539 145.635555a8.126984 8.126984 0 0 0 3.819682 10.56508zM642.600635 327.68l31.126349 15.52254-9.183492 9.264762a8.126984 8.126984 0 0 0 0 11.459047 8.126984 8.126984 0 0 0 5.688889 2.356826 8.126984 8.126984 0 0 0 5.770159-2.356826l9.346031-9.346032 16.253969 32.507937a8.126984 8.126984 0 0 0 6.013968 4.307302h1.219048a8.126984 8.126984 0 0 0 5.851428-2.438096L746.057143 357.587302l43.560635-6.664127a8.126984 8.126984 0 0 0 6.095238-11.621588l-20.64254-42.341587 7.233016-40.634921a8.126984 8.126984 0 0 0-2.275555-7.070476 8.126984 8.126984 0 0 0-7.070477-2.356825l-43.560635 7.151746-39.253333-20.073651a8.126984 8.126984 0 0 0-7.476825 0 8.126984 8.126984 0 0 0-4.307302 6.176508l-4.95746 37.302857-33.239365 37.627937a8.126984 8.126984 0 0 0 2.438095 12.678095z" fill="#40466B" p-id="3173"></path><path d="M687.217778 286.313651a8.126984 8.126984 0 0 0 1.950476-4.307302l3.819683-28.363174 31.370158 16.253968a8.126984 8.126984 0 0 0 5.03873 0.812698l34.539683-6.013968-5.607619 31.776508a8.126984 8.126984 0 0 0 0.650159 4.95746l16.904127 34.864762-34.946032 5.03873a8.777143 8.777143 0 0 0-4.551111 2.356826l-25.193651 25.51873-16.253968-32.507937a6.582857 6.582857 0 0 0-1.381588-1.950476 9.752381 9.752381 0 0 0-2.113015-1.462857l-31.776508-16.253968z" fill="#FFCD5F" p-id="3174"></path><path d="M895.349841 612.937143l-20.56127-42.422857 7.233016-40.634921a8.126984 8.126984 0 0 0-2.275555-7.151746 8.126984 8.126984 0 0 0-7.070476-2.275556L828.952381 528.253968l-39.253333-20.073651a8.126984 8.126984 0 0 0-7.476826 0 8.126984 8.126984 0 0 0-4.307301 6.176508l-4.713651 35.433651c-84.601905-44.779683-189.44 4.794921-193.909841 6.907937a8.126984 8.126984 0 0 0-3.819683 10.890158 8.126984 8.126984 0 0 0 7.395556 4.551112 8.126984 8.126984 0 0 0 3.494603-0.812699c0.975238-0.487619 99.718095-46.973968 176.761905-8.126984L739.555556 588.88127a8.126984 8.126984 0 0 0-1.869207 6.989206 8.126984 8.126984 0 0 0 4.388572 5.688889l38.765714 19.342222 20.39873 39.903492a8.126984 8.126984 0 0 0 6.013968 4.388572h1.219048a8.126984 8.126984 0 0 0 5.851429-2.438095l31.126349-31.613969 43.560635-6.664127a8.126984 8.126984 0 0 0 5.932698-4.307301 8.126984 8.126984 0 0 0 0.406349-7.233016z" fill="#40466B" p-id="3175"></path><path d="M840.655238 615.537778a8.777143 8.777143 0 0 0-4.551111 2.356825l-25.193651 25.51873-16.253968-32.507936a7.639365 7.639365 0 0 0-3.575873-3.575873l-31.776508-16.253968 27.875556-31.532699a8.126984 8.126984 0 0 0 1.950476-4.307301l3.819682-28.444445 31.370159 16.253968a8.126984 8.126984 0 0 0 5.03873 0.812699l34.864762-5.770159-5.607619 31.695238a8.126984 8.126984 0 0 0 0.650159 4.95746l16.904127 34.864762z" fill="#FFCD5F" p-id="3176"></path><path d="M361.569524 235.68254l38.846984 19.260952 20.39873 39.984762a8.126984 8.126984 0 0 0 5.932699 4.307302h1.300317a8.126984 8.126984 0 0 0 5.770159-2.356826l31.207619-31.613968 43.479365-6.745397a8.126984 8.126984 0 0 0 6.095238-11.540317l-20.56127-42.422858 7.151746-40.63492a8.126984 8.126984 0 0 0-2.194286-7.151746 8.126984 8.126984 0 0 0-7.151746-2.275556l-43.479365 8.045715-39.334603-20.154921a8.126984 8.126984 0 0 0-11.702857 6.176508l-4.95746 37.384127-33.320635 37.627936a8.126984 8.126984 0 0 0 2.519365 12.109207z" fill="#40466B" p-id="3177"></path><path d="M406.349206 194.47873a8.126984 8.126984 0 0 0 1.950477-4.307301l3.738412-28.363175 31.451429 16.253968a8.126984 8.126984 0 0 0 5.03873 0.731429l34.783492-5.688889-5.607619 31.695238a7.476825 7.476825 0 0 0 0.731429 4.95746l16.904127 34.864762-35.352381 5.44508a8.126984 8.126984 0 0 0-4.876191 1.869206l-25.193651 25.6-16.253968-32.507937a8.614603 8.614603 0 0 0-3.657143-3.575873l-31.695238-15.766349z" fill="#FFCD5F" p-id="3178"></path><path d="M526.547302 490.382222l-17.229207 17.229207a8.126984 8.126984 0 1 0 11.540318 11.459047l17.229206-17.229206a8.126984 8.126984 0 0 0 0-11.459048 8.126984 8.126984 0 0 0-11.540317 0zM578.31619 438.857143L560.761905 455.92381a8.126984 8.126984 0 0 0 5.688889 13.815873 8.126984 8.126984 0 0 0 5.770158-2.356826l17.229207-17.229206a8.126984 8.126984 0 0 0 0-11.540318 8.126984 8.126984 0 0 0-11.133969 0.24381zM612.774603 415.695238a8.126984 8.126984 0 0 0 5.770159 2.356825 8.126984 8.126984 0 0 0 5.770159-2.356825L641.544127 398.222222a8.126984 8.126984 0 0 0 0-11.459047 8.126984 8.126984 0 0 0-11.540317 0l-17.229207 17.391746a8.126984 8.126984 0 0 0 0 11.540317zM195.779048 476.16a39.903492 39.903492 0 1 0 0 56.32 39.903492 39.903492 0 0 0 0-56.32z" fill="#40466B" p-id="3179"></path><path d="M184.32 521.020952a23.649524 23.649524 0 1 1 0-33.401904 23.730794 23.730794 0 0 1 0 33.401904z" fill="#8BCDF7" p-id="3180"></path><path d="M492.739048 829.44a39.822222 39.822222 0 1 0 56.32 0 39.903492 39.903492 0 0 0-56.32 0z" fill="#40466B" p-id="3181"></path><path d="M537.6 874.300952a23.649524 23.649524 0 1 1 0-33.401904 23.730794 23.730794 0 0 1 0 33.401904z" fill="#8BCDF7" p-id="3182"></path><path d="M756.215873 736.873651a39.822222 39.822222 0 1 0 56.40127 0 39.903492 39.903492 0 0 0-56.40127 0z" fill="#40466B" p-id="3183"></path><path d="M801.076825 781.734603a23.649524 23.649524 0 1 1 0-33.401905 23.730794 23.730794 0 0 1 0 33.401905z" fill="#E55A6B" p-id="3184"></path><path d="M579.453968 293.465397a39.903492 39.903492 0 1 0-28.200635-11.702857 39.659683 39.659683 0 0 0 28.200635 11.702857z" fill="#40466B" p-id="3185"></path><path d="M562.793651 236.901587a23.568254 23.568254 0 1 1 0 33.401905 23.649524 23.649524 0 0 1 0-33.401905z" fill="#8BCDF7" p-id="3186"></path><path d="M277.617778 195.047619a34.133333 34.133333 0 1 0-24.380953-9.99619 33.889524 33.889524 0 0 0 24.380953 9.99619z" fill="#40466B" p-id="3187"></path><path d="M265.020952 147.992381a17.879365 17.879365 0 0 1 25.274921 25.274921 18.285714 18.285714 0 0 1-25.274921 0 17.960635 17.960635 0 0 1 0-25.274921z" fill="#E55A6B" p-id="3188"></path><path d="M265.264762 146.692063a8.939683 8.939683 0 0 1 15.27873 6.257778 9.102222 9.102222 0 0 1-2.600635 6.339048 9.264762 9.264762 0 0 1-12.678095 0 9.102222 9.102222 0 0 1-2.600635-6.339048 8.939683 8.939683 0 0 1 2.600635-6.257778zM156.363175 485.343492a11.865397 11.865397 0 0 1 8.126984-3.413333 11.621587 11.621587 0 0 1 8.126984 3.413333 11.865397 11.865397 0 0 1 3.413333 8.126984 11.621587 11.621587 0 0 1-3.413333 8.126984 11.946667 11.946667 0 0 1-16.253968 0 11.621587 11.621587 0 0 1-3.413334-8.126984 11.865397 11.865397 0 0 1 3.413334-8.126984zM566.613333 233.488254a11.702857 11.702857 0 1 1 16.253969 16.253968 11.865397 11.865397 0 0 1-16.253969 0 11.459048 11.459048 0 0 1 0-16.253968zM776.126984 746.219683a11.621587 11.621587 0 0 1 8.126984-3.413334 11.621587 11.621587 0 0 1 12.190476 11.702857 11.621587 11.621587 0 0 1-3.413333 8.126984 11.946667 11.946667 0 0 1-16.253968 0 11.621587 11.621587 0 0 1-3.413333-8.126984 11.865397 11.865397 0 0 1 2.763174-8.289523zM512.650159 837.485714a11.702857 11.702857 0 1 1 16.253968 16.253969 11.865397 11.865397 0 0 1-16.253968 0 11.702857 11.702857 0 0 1 0-16.253969z" fill="#FFFFFF" opacity=".5" p-id="3189"></path><path d="M590.831746 725.333333a248.523175 248.523175 0 0 0-114.915556 56.888889l-22.267936 19.748572 29.257143-5.688889a196.022857 196.022857 0 0 1 104.513016 7.476825 49.249524 49.249524 0 0 0 16.985397 3.006984 51.03746 51.03746 0 0 0 37.221587-16.253968A35.92127 35.92127 0 0 0 650.15873 755.809524c-5.770159-21.617778-33.564444-35.92127-59.326984-30.476191z" fill="#40466B" p-id="3190"></path><path d="M629.67873 779.459048A34.458413 34.458413 0 0 1 593.269841 788.31746a207.806984 207.806984 0 0 0-70.786031-12.271746h-12.434286a235.68254 235.68254 0 0 1 84.520635-35.189841c18.773333-3.982222 37.140317 6.907937 40.63492 19.098413a20.073651 20.073651 0 0 1-5.526349 19.504762z" fill="#A8A4EA" p-id="3191"></path><path d="M232.756825 580.916825l19.667302-22.267936a247.060317 247.060317 0 0 0 56.888889-114.834286c5.36381-25.76254-8.614603-53.719365-30.476191-59.408254A35.92127 35.92127 0 0 0 243.809524 393.102222 50.712381 50.712381 0 0 0 230.887619 446.984127a195.941587 195.941587 0 0 1 7.476825 104.513016z" fill="#40466B" p-id="3192"></path><path d="M255.024762 405.048889a21.536508 21.536508 0 0 1 13.978413-5.770159 19.260952 19.260952 0 0 1 5.445079 0.812699c12.027937 3.169524 22.836825 21.536508 18.854603 40.63492a234.951111 234.951111 0 0 1-35.189841 84.439365 208.375873 208.375873 0 0 0-11.946667-83.220317 34.620952 34.620952 0 0 1 8.858413-36.896508z" fill="#A8A4EA" p-id="3193"></path><path d="M208.457143 306.306032l-7.883175 14.953651 27.875556-4.794921 9.508571 30.47619 12.434286-17.635555 11.621587 11.946666 3.494603-24.055873 29.988572 0.40635-14.384762-19.342223 18.854603-9.346031-22.674286-11.133969 8.126985-23.974603-19.911112 6.745397-3.494603-23.893333-20.967619 21.536508-19.423492-14.547302 0.16254 16.660318-21.211429-3.657143 14.791111 28.200635-23.080635 16.416508 16.172699 5.03873zM819.768889 445.68381l-5.770159 10.890158 20.31746-3.494603 6.907937 22.186667 9.102222-12.840635 8.370794 8.695873 2.600635-17.473016 21.861587 0.243809-10.565079-14.059682 13.734603-6.745397-16.497778-8.208254 5.932699-17.391746-14.547302 4.876191-2.519365-17.310477-15.19746 15.60381-14.140953-10.565079 0.16254 12.109206-15.52254-2.600635 10.808889 20.48-16.822857 11.946667 11.784127 3.657143z" fill="#40466B" p-id="3194"></path><path d="M264.695873 754.509206l-21.130159 46.32381-27.306666 12.190476 24.706031-55.426032 23.730794-3.088254zM299.154286 678.846984l-26.493969 58.189206-23.893333 3.088254 25.925079-58.107936 24.462223-3.169524zM337.594921 594.488889l-30.476191 66.966349-24.706032 3.169524 29.826032-66.885079 25.356191-3.250794zM374.166349 514.031746L345.478095 577.015873v0.08127l-25.43746 3.250794 28.038095-62.902858 26.087619-3.413333zM400.416508 456.492698l-18.285714 40.147302-26.250159 3.413333 27.144127-60.952381 17.391746 17.391746z" fill="#FFFFFF" opacity=".5" p-id="3195"></path><path d="M419.189841 173.348571l20.886349 10.971429a10.07746 10.07746 0 0 0 8.126985 0.568889l35.271111-11.946667-34.783492 5.688889a7.639365 7.639365 0 0 1-5.038731-0.731428l-31.451428-16.253969-3.738413 28.363175a8.126984 8.126984 0 0 1-1.950476 4.307301l-27.875556 31.613969 33.726985-24.380953a9.99619 9.99619 0 0 0 3.982222-6.501587zM762.79873 273.066667l1.462857-8.126984-34.864762 5.770158a8.126984 8.126984 0 0 1-5.03873-0.812698l-31.370158-16.253968-3.819683 28.363174a8.126984 8.126984 0 0 1-1.950476 4.307302l-27.875556 31.532698 9.102222 4.551111 29.500953-32.507936 2.356825-22.267937 21.780318 13.003175zM828.952381 544.507937a8.126984 8.126984 0 0 1-5.03873-0.812699l-31.370159-16.253968-3.819682 28.444444a8.126984 8.126984 0 0 1-1.950477 4.307302l-27.713016 31.532698 10.24 5.03873 29.744762-32.507936v-21.455238l24.380953 11.052698 38.928254-7.151746 1.462857-8.126984z" fill="#FFEED2" p-id="3196"></path><path d="M635.04254 768.406349a17.229206 17.229206 0 0 0-0.487619-8.126984c-3.250794-12.190476-21.617778-23.080635-40.634921-19.098413a235.68254 235.68254 0 0 0-84.520635 35.189842s108.820317-46.648889 125.643175-7.964445zM274.448254 400.091429a19.260952 19.260952 0 0 0-5.445079-0.812699 21.536508 21.536508 0 0 0-13.978413 5.770159 34.620952 34.620952 0 0 0-8.858413 36.652698c2.031746 5.445079 3.657143 10.971429 5.12 16.253969s-6.095238-45.429841 16.985397-47.705397c21.130159-2.194286 24.949841 21.455238 25.51873 25.51873 1.625397-16.904127-8.289524-32.751746-19.342222-35.67746z" fill="#FFFFFF" opacity=".5" p-id="3197"></path></svg>